<svg width="40" height="40" viewBox="0 0 40 40" fill="none" xmlns="http://www.w3.org/2000/svg">
<circle cx="20" cy="20" r="20" fill="#B39DDB"/>
<g clip-path="url(#clip0_257_3097)">
<path d="M23.904 21.0506L21.7827 23.1719L27.7789 29.1681L29.9002 27.0468L23.904 21.0506Z" fill="#424242"/>
<path d="M25.5 17.9998C27.43 17.9998 29 16.4298 29 14.4998C29 13.9198 28.84 13.3798 28.59 12.8998L25.89 15.5998L24.4 14.1098L27.1 11.4098C26.62 11.1598 26.08 10.9998 25.5 10.9998C23.57 10.9998 22 12.5698 22 14.4998C22 14.9098 22.08 15.2998 22.21 15.6598L20.36 17.5098L18.58 15.7298L19.29 15.0198L17.88 13.6098L20 11.4898C18.83 10.3198 16.93 10.3198 15.76 11.4898L12.22 15.0298L13.63 16.4398H10.81L10.1 17.1498L13.64 20.6898L14.35 19.9798V17.1498L15.76 18.5598L16.47 17.8498L18.25 19.6298L10.84 27.0398L12.96 29.1598L24.34 17.7898C24.7 17.9198 25.09 17.9998 25.5 17.9998Z" fill="#424242"/>
</g>
<defs>
<clipPath id="clip0_257_3097">
<rect width="24" height="24" fill="white" transform="translate(8 8)"/>
</clipPath>
</defs>
</svg>
