<svg width="40" height="40" viewBox="0 0 40 40" fill="none" xmlns="http://www.w3.org/2000/svg">
<circle cx="20" cy="20" r="20" fill="#FFCCBC"/>
<g clip-path="url(#clip0_257_3100)">
<path d="M19.7999 18.9C17.5299 18.31 16.7999 17.7 16.7999 16.75C16.7999 15.66 17.8099 14.9 19.4999 14.9C21.2799 14.9 21.9399 15.75 21.9999 17H24.2099C24.1399 15.28 23.0899 13.7 20.9999 13.19V11H17.9999V13.16C16.0599 13.58 14.4999 14.84 14.4999 16.77C14.4999 19.08 16.4099 20.23 19.1999 20.9C21.6999 21.5 22.1999 22.38 22.1999 23.31C22.1999 24 21.7099 25.1 19.4999 25.1C17.4399 25.1 16.6299 24.18 16.5199 23H14.3199C14.4399 25.19 16.0799 26.42 17.9999 26.83V29H20.9999V26.85C22.9499 26.48 24.4999 25.35 24.4999 23.3C24.4999 20.46 22.0699 19.49 19.7999 18.9Z" fill="#424242"/>
</g>
<defs>
<clipPath id="clip0_257_3100">
<rect width="24" height="24" fill="white" transform="translate(8 8)"/>
</clipPath>
</defs>
</svg>
