<svg width="40" height="40" viewBox="0 0 40 40" fill="none" xmlns="http://www.w3.org/2000/svg">
<circle cx="20" cy="20" r="20" fill="#BBDEFB"/>
<g clip-path="url(#clip0_257_3094)">
<path d="M10 30L24 25L15 16L10 30ZM20.35 24.18L13.3 26.7L15.82 19.65L20.35 24.18Z" fill="#424242"/>
<path d="M22.53 20.5301L28.12 14.9401C28.61 14.4501 29.4 14.4501 29.89 14.9401L30.48 15.5301L31.54 14.4701L30.95 13.8801C29.88 12.8101 28.13 12.8101 27.06 13.8801L21.47 19.4701L22.53 20.5301Z" fill="#424242"/>
<path d="M18.06 14.88L17.47 15.47L18.53 16.53L19.12 15.94C20.19 14.87 20.19 13.12 19.12 12.05L18.53 11.46L17.47 12.53L18.06 13.12C18.54 13.6 18.54 14.4 18.06 14.88Z" fill="#424242"/>
<path d="M25.06 19.8801L23.47 21.4701L24.53 22.5301L26.12 20.9401C26.61 20.4501 27.4 20.4501 27.89 20.9401L29.5 22.5501L30.56 21.4901L28.95 19.8801C27.87 18.8101 26.13 18.8101 25.06 19.8801Z" fill="#424242"/>
<path d="M23.06 13.88L19.47 17.47L20.53 18.53L24.12 14.94C25.19 13.87 25.19 12.12 24.12 11.05L22.53 9.45996L21.47 10.52L23.06 12.11C23.54 12.6 23.54 13.4 23.06 13.88Z" fill="#424242"/>
</g>
<defs>
<clipPath id="clip0_257_3094">
<rect width="24" height="24" fill="white" transform="translate(8 8)"/>
</clipPath>
</defs>
</svg>
