<svg width="64" height="40" viewBox="0 0 64 40" fill="none" xmlns="http://www.w3.org/2000/svg">
<g clip-path="url(#clip0_28_267)">
<path d="M30 20V14H34V20H39V12H42L32 3L22 12H25V20H30Z" fill="#616161"/>
</g>
<path d="M15.7283 36H16.7851V32.0966H21.4385V36H22.4953V27.2727H21.4385V31.1591H16.7851V27.2727H15.7283V36ZM27.5338 36.1364C29.3066 36.1364 30.4998 34.7898 30.4998 32.7614C30.4998 30.7159 29.3066 29.3693 27.5338 29.3693C25.7611 29.3693 24.5679 30.7159 24.5679 32.7614C24.5679 34.7898 25.7611 36.1364 27.5338 36.1364ZM27.5338 35.233C26.1873 35.233 25.5736 34.0739 25.5736 32.7614C25.5736 31.4489 26.1873 30.2727 27.5338 30.2727C28.8804 30.2727 29.4941 31.4489 29.4941 32.7614C29.4941 34.0739 28.8804 35.233 27.5338 35.233ZM32.4349 36H33.4406V31.9091C33.4406 30.9503 34.1395 30.2727 34.9235 30.2727C35.6863 30.2727 36.219 30.7713 36.219 31.517V36H37.2417V31.7386C37.2417 30.8949 37.7701 30.2727 38.6906 30.2727C39.4065 30.2727 40.0201 30.652 40.0201 31.6193V36H41.0258V31.6193C41.0258 30.081 40.1991 29.3693 39.0315 29.3693C38.094 29.3693 37.4079 29.7997 37.0713 30.4773H37.0031C36.6792 29.7784 36.1082 29.3693 35.2474 29.3693C34.3951 29.3693 33.7645 29.7784 33.4917 30.4773H33.4065V29.4545H32.4349V36ZM46.0089 36.1364C47.3385 36.1364 48.31 35.4716 48.6169 34.483L47.6453 34.2102C47.3896 34.892 46.7973 35.233 46.0089 35.233C44.8285 35.233 44.0146 34.4702 43.9677 33.0682H48.7191V32.642C48.7191 30.2045 47.2703 29.3693 45.9066 29.3693C44.1339 29.3693 42.9578 30.767 42.9578 32.7784C42.9578 34.7898 44.1169 36.1364 46.0089 36.1364ZM43.9677 32.1989C44.0359 31.1804 44.7561 30.2727 45.9066 30.2727C46.9975 30.2727 47.6964 31.0909 47.6964 32.1989H43.9677Z" fill="#424242"/>
<defs>
<clipPath id="clip0_28_267">
<rect width="24" height="24" fill="white" transform="translate(20)"/>
</clipPath>
</defs>
</svg>
