<svg width="64" height="40" viewBox="0 0 64 40" fill="none" xmlns="http://www.w3.org/2000/svg">
<g clip-path="url(#clip0_28_263)">
<path d="M32 2C26.48 2 22 6.48 22 12C22 17.52 26.48 22 32 22C37.52 22 42 17.52 42 12C42 6.48 37.52 2 32 2ZM39.93 11H33V4.07C36.61 4.52 39.48 7.39 39.93 11ZM24 12C24 7.93 27.06 4.56 31 4.07V19.93C27.06 19.44 24 16.07 24 12ZM33 19.93V13H39.93C39.48 16.61 36.61 19.48 33 19.93Z" fill="#616161"/>
</g>
<path d="M12.9084 36H13.9652V32.5909H15.8743C15.951 32.5909 16.0234 32.5909 16.0959 32.5866L17.9368 36H19.1641L17.1911 32.3949C18.3033 32.0156 18.8232 31.108 18.8232 29.9489C18.8232 28.4062 17.9027 27.2727 15.8572 27.2727H12.9084V36ZM13.9652 31.6364V28.2102H15.8232C17.2379 28.2102 17.7834 28.9006 17.7834 29.9489C17.7834 30.9972 17.2379 31.6364 15.8402 31.6364H13.9652ZM23.5218 36.1364C24.8513 36.1364 25.8229 35.4716 26.1298 34.483L25.1582 34.2102C24.9025 34.892 24.3102 35.233 23.5218 35.233C22.3414 35.233 21.5275 34.4702 21.4806 33.0682H26.232V32.642C26.232 30.2045 24.7832 29.3693 23.4195 29.3693C21.6468 29.3693 20.4707 30.767 20.4707 32.7784C20.4707 34.7898 21.6298 36.1364 23.5218 36.1364ZM21.4806 32.1989C21.5488 31.1804 22.269 30.2727 23.4195 30.2727C24.5104 30.2727 25.2093 31.0909 25.2093 32.1989H21.4806ZM28.1619 38.4545H29.1675V34.9943H29.2528C29.4744 35.3523 29.9005 36.1364 31.1619 36.1364C32.7982 36.1364 33.9403 34.8239 33.9403 32.7443C33.9403 30.6818 32.7982 29.3693 31.1448 29.3693C29.8664 29.3693 29.4744 30.1534 29.2528 30.4943H29.1335V29.4545H28.1619V38.4545ZM29.1505 32.7273C29.1505 31.2614 29.7982 30.2727 31.0255 30.2727C32.3039 30.2727 32.9346 31.3466 32.9346 32.7273C32.9346 34.125 32.2869 35.233 31.0255 35.233C29.8153 35.233 29.1505 34.2102 29.1505 32.7273ZM38.5335 36.1364C40.3062 36.1364 41.4994 34.7898 41.4994 32.7614C41.4994 30.7159 40.3062 29.3693 38.5335 29.3693C36.7607 29.3693 35.5675 30.7159 35.5675 32.7614C35.5675 34.7898 36.7607 36.1364 38.5335 36.1364ZM38.5335 35.233C37.1869 35.233 36.5732 34.0739 36.5732 32.7614C36.5732 31.4489 37.1869 30.2727 38.5335 30.2727C39.88 30.2727 40.4937 31.4489 40.4937 32.7614C40.4937 34.0739 39.88 35.233 38.5335 35.233ZM43.4345 36H44.4402V31.858C44.4402 30.9716 45.1391 30.3239 46.0936 30.3239C46.3621 30.3239 46.6391 30.375 46.7072 30.392V29.3693C46.5922 29.3608 46.328 29.3523 46.1788 29.3523C45.3947 29.3523 44.7129 29.7955 44.4743 30.4432H44.4061V29.4545H43.4345V36ZM51.5561 29.4545H50.1584V27.8864H49.1527V29.4545H48.1641V30.3068H49.1527V34.3977C49.1527 35.5398 50.0732 36.0852 50.9254 36.0852C51.3004 36.0852 51.5391 36.017 51.6754 35.9659L51.4709 35.0625C51.3857 35.0795 51.2493 35.1136 51.0277 35.1136C50.5845 35.1136 50.1584 34.9773 50.1584 34.125V30.3068H51.5561V29.4545Z" fill="#424242"/>
<defs>
<clipPath id="clip0_28_263">
<rect width="24" height="24" fill="white" transform="translate(20)"/>
</clipPath>
</defs>
</svg>
