<svg width="64" height="40" viewBox="0 0 64 40" fill="none" xmlns="http://www.w3.org/2000/svg">
<g clip-path="url(#clip0_28_265)">
<path d="M39.43 12.98C39.47 12.66 39.5 12.34 39.5 12C39.5 11.66 39.47 11.34 39.43 11.02L41.54 9.37C41.73 9.22 41.78 8.95 41.66 8.73L39.66 5.27C39.57 5.11 39.4 5.02 39.22 5.02C39.16 5.02 39.1 5.03 39.05 5.05L36.56 6.05C36.04 5.65 35.48 5.32 34.87 5.07L34.49 2.42C34.46 2.18 34.25 2 34 2H30C29.75 2 29.54 2.18 29.51 2.42L29.13 5.07C28.52 5.32 27.96 5.66 27.44 6.05L24.95 5.05C24.89 5.03 24.83 5.02 24.77 5.02C24.6 5.02 24.43 5.11 24.34 5.27L22.34 8.73C22.21 8.95 22.27 9.22 22.46 9.37L24.57 11.02C24.53 11.34 24.5 11.67 24.5 12C24.5 12.33 24.53 12.66 24.57 12.98L22.46 14.63C22.27 14.78 22.22 15.05 22.34 15.27L24.34 18.73C24.43 18.89 24.6 18.98 24.78 18.98C24.84 18.98 24.9 18.97 24.95 18.95L27.44 17.95C27.96 18.35 28.52 18.68 29.13 18.93L29.51 21.58C29.54 21.82 29.75 22 30 22H34C34.25 22 34.46 21.82 34.49 21.58L34.87 18.93C35.48 18.68 36.04 18.34 36.56 17.95L39.05 18.95C39.11 18.97 39.17 18.98 39.23 18.98C39.4 18.98 39.57 18.89 39.66 18.73L41.66 15.27C41.78 15.05 41.73 14.78 41.54 14.63L39.43 12.98ZM37.45 11.27C37.49 11.58 37.5 11.79 37.5 12C37.5 12.21 37.48 12.43 37.45 12.73L37.31 13.86L38.2 14.56L39.28 15.4L38.58 16.61L37.31 16.1L36.27 15.68L35.37 16.36C34.94 16.68 34.53 16.92 34.12 17.09L33.06 17.52L32.9 18.65L32.7 20H31.3L31.11 18.65L30.95 17.52L29.89 17.09C29.46 16.91 29.06 16.68 28.66 16.38L27.75 15.68L26.69 16.11L25.42 16.62L24.72 15.41L25.8 14.57L26.69 13.87L26.55 12.74C26.52 12.43 26.5 12.2 26.5 12C26.5 11.8 26.52 11.57 26.55 11.27L26.69 10.14L25.8 9.44L24.72 8.6L25.42 7.39L26.69 7.9L27.73 8.32L28.63 7.64C29.06 7.32 29.47 7.08 29.88 6.91L30.94 6.48L31.1 5.35L31.3 4H32.69L32.88 5.35L33.04 6.48L34.1 6.91C34.53 7.09 34.93 7.32 35.33 7.62L36.24 8.32L37.3 7.89L38.57 7.38L39.27 8.59L38.2 9.44L37.31 10.14L37.45 11.27ZM32 8C29.79 8 28 9.79 28 12C28 14.21 29.79 16 32 16C34.21 16 36 14.21 36 12C36 9.79 34.21 8 32 8ZM32 14C30.9 14 30 13.1 30 12C30 10.9 30.9 10 32 10C33.1 10 34 10.9 34 12C34 13.1 33.1 14 32 14Z" fill="#616161"/>
</g>
<path d="M13.0272 29.4545H14.0499C14.0031 28.1378 12.7886 27.1534 11.1011 27.1534C9.43061 27.1534 8.11811 28.125 8.11811 29.5909C8.11811 30.767 8.97038 31.4659 10.334 31.858L11.4079 32.1648C12.3283 32.4205 13.1465 32.7443 13.1465 33.6136C13.1465 34.5682 12.2261 35.1989 11.0158 35.1989C9.97607 35.1989 9.05561 34.7386 8.97038 33.75H7.87947C7.98175 35.1818 9.14084 36.1534 11.0158 36.1534C13.0272 36.1534 14.1692 35.0455 14.1692 33.6307C14.1692 31.9943 12.6181 31.4659 11.7147 31.2273L10.8283 30.9886C10.1806 30.8182 9.14084 30.4773 9.14084 29.5398C9.14084 28.7045 9.90788 28.0909 11.067 28.0909C12.1238 28.0909 12.9249 28.5938 13.0272 29.4545ZM18.9148 36.1364C20.2443 36.1364 21.2159 35.4716 21.5227 34.483L20.5511 34.2102C20.2955 34.892 19.7031 35.233 18.9148 35.233C17.7344 35.233 16.9205 34.4702 16.8736 33.0682H21.625V32.642C21.625 30.2045 20.1761 29.3693 18.8125 29.3693C17.0398 29.3693 15.8636 30.767 15.8636 32.7784C15.8636 34.7898 17.0227 36.1364 18.9148 36.1364ZM16.8736 32.1989C16.9418 31.1804 17.6619 30.2727 18.8125 30.2727C19.9034 30.2727 20.6023 31.0909 20.6023 32.1989H16.8736ZM26.4014 29.4545H25.0037V27.8864H23.998V29.4545H23.0094V30.3068H23.998V34.3977C23.998 35.5398 24.9185 36.0852 25.7707 36.0852C26.1457 36.0852 26.3844 36.017 26.5207 35.9659L26.3162 35.0625C26.231 35.0795 26.0946 35.1136 25.873 35.1136C25.4298 35.1136 25.0037 34.9773 25.0037 34.125V30.3068H26.4014V29.4545ZM31.1608 29.4545H29.7631V27.8864H28.7574V29.4545H27.7688V30.3068H28.7574V34.3977C28.7574 35.5398 29.6778 36.0852 30.5301 36.0852C30.9051 36.0852 31.1438 36.017 31.2801 35.9659L31.0756 35.0625C30.9903 35.0795 30.854 35.1136 30.6324 35.1136C30.1892 35.1136 29.7631 34.9773 29.7631 34.125V30.3068H31.1608V29.4545ZM33.0736 36H34.0793V29.4545H33.0736V36ZM33.5849 28.3636C33.977 28.3636 34.3009 28.0568 34.3009 27.6818C34.3009 27.3068 33.977 27 33.5849 27C33.1929 27 32.869 27.3068 32.869 27.6818C32.869 28.0568 33.1929 28.3636 33.5849 28.3636ZM37.3269 32.0625C37.3269 30.9205 38.0343 30.2727 38.9974 30.2727C39.9306 30.2727 40.4974 30.8821 40.4974 31.9091V36H41.5031V31.8409C41.5031 30.1705 40.6124 29.3693 39.2871 29.3693C38.2985 29.3693 37.6849 29.8125 37.3781 30.4773H37.2928V29.4545H36.3212V36H37.3269V32.0625ZM46.3828 38.5909C47.951 38.5909 49.2124 37.875 49.2124 36.1875V29.4545H48.2408V30.4943H48.1385C47.9169 30.1534 47.5078 29.3693 46.2294 29.3693C44.576 29.3693 43.4339 30.6818 43.4339 32.6932C43.4339 34.7386 44.6271 35.8977 46.2124 35.8977C47.4908 35.8977 47.8999 35.1477 48.1214 34.7898H48.2067V36.1193C48.2067 37.2102 47.4396 37.7045 46.3828 37.7045C45.1939 37.7045 44.7763 37.0781 44.5078 36.7159L43.7067 37.2784C44.1158 37.9645 44.9212 38.5909 46.3828 38.5909ZM46.3487 34.9943C45.0874 34.9943 44.4396 34.0398 44.4396 32.6761C44.4396 31.3466 45.0703 30.2727 46.3487 30.2727C47.576 30.2727 48.2237 31.2614 48.2237 32.6761C48.2237 34.125 47.5589 34.9943 46.3487 34.9943ZM56.0896 30.9205C55.7743 29.9915 55.0669 29.3693 53.7715 29.3693C52.3908 29.3693 51.368 30.1534 51.368 31.2614C51.368 32.1648 51.905 32.7699 53.1067 33.0511L54.1976 33.3068C54.8581 33.4602 55.1692 33.7756 55.1692 34.2273C55.1692 34.7898 54.5726 35.25 53.6351 35.25C52.8126 35.25 52.297 34.8963 52.118 34.1932L51.1635 34.4318C51.3979 35.544 52.3141 36.1364 53.6521 36.1364C55.1734 36.1364 56.209 35.3054 56.209 34.1761C56.209 33.2642 55.6379 32.6889 54.4703 32.4034L53.4987 32.1648C52.7232 31.973 52.3737 31.7131 52.3737 31.2102C52.3737 30.6477 52.9703 30.2386 53.7715 30.2386C54.6493 30.2386 55.0115 30.7244 55.1862 31.1761L56.0896 30.9205Z" fill="#424242"/>
<defs>
<clipPath id="clip0_28_265">
<rect width="24" height="24" fill="white" transform="translate(20)"/>
</clipPath>
</defs>
</svg>
