<svg width="92" height="32" viewBox="0 0 92 32" fill="none" xmlns="http://www.w3.org/2000/svg">
<circle cx="16" cy="16" r="12" fill="#424242"/>
<rect x="9.30237" y="9.86047" width="5.02326" height="11.7209" fill="white"/>
<circle cx="19.3489" cy="12.6512" r="2.7907" fill="white"/>
<path d="M19.3488 15.7209L22.6977 21.5814L16 21.5814L19.3488 15.7209Z" fill="white"/>
<path d="M37.2642 23H40.3395V18.8665L41.8523 17.0199L45.8366 23H49.5156L44.054 14.9673L49.4517 8.45455H45.7656L40.5312 14.8679H40.3395V8.45455H37.2642V23ZM51.86 23H54.8856V12.0909H51.86V23ZM53.3799 10.6847C54.2819 10.6847 55.0206 9.99574 55.0206 9.15057C55.0206 8.3125 54.2819 7.62358 53.3799 7.62358C52.485 7.62358 51.7464 8.3125 51.7464 9.15057C51.7464 9.99574 52.485 10.6847 53.3799 10.6847ZM63.2918 12.0909H61.2393V9.47727H58.2137V12.0909H56.7222V14.3636H58.2137V20.0455C58.1995 22.1832 59.6555 23.2415 61.8501 23.1491C62.6313 23.1207 63.1853 22.9645 63.4907 22.8651L63.0148 20.6136C62.8657 20.642 62.5461 20.7131 62.262 20.7131C61.6583 20.7131 61.2393 20.4858 61.2393 19.6477V14.3636H63.2918V12.0909ZM71.2453 12.0909H69.1927V9.47727H66.1671V12.0909H64.6757V14.3636H66.1671V20.0455C66.1529 22.1832 67.6089 23.2415 69.8035 23.1491C70.5847 23.1207 71.1387 22.9645 71.4441 22.8651L70.9683 20.6136C70.8191 20.642 70.4995 20.7131 70.2154 20.7131C69.6117 20.7131 69.1927 20.4858 69.1927 19.6477V14.3636H71.2453V12.0909ZM75.264 27.0909C77.5155 27.0909 78.7086 25.9403 79.3265 24.179L83.5666 12.1051L80.3635 12.0909L78.0836 20.1023H77.97L75.7115 12.0909H72.5297L76.443 23.3125L76.2655 23.7741C75.8677 24.7969 75.1078 24.8466 74.0424 24.5199L73.3606 26.7784C73.7939 26.9631 74.497 27.0909 75.264 27.0909Z" fill="#424242"/>
</svg>
